<svg height="512pt" viewBox="0 0 512 512" width="512pt" xmlns="http://www.w3.org/2000/svg"><path d="m430.019531 328.449219h62.421875v25.851562c-25.929687 62.308594-75.769531 112.160157-138.070312 138.109375h-25.859375v-62.421875c45.738281-19.117187 82.398437-55.789062 101.507812-101.539062zm0 0" fill="#bf4635"/><path d="m492.460938 157.738281c12.589843 30.261719 19.539062 63.453125 19.539062 98.261719 0 34.828125-6.960938 68.03125-19.558594 98.300781l-62.421875-25.851562c9.332031-22.320313 14.480469-46.789063 14.480469-72.449219 0-25.640625-5.140625-50.101562-14.460938-72.398438v-25.863281zm0 0" fill="#ff5e47"/><path d="m328.511719 429.988281 25.859375 62.421875c-30.292969 12.621094-63.511719 19.589844-98.371094 19.589844l-30-33.75 30-33.75c25.679688 0 50.179688-5.160156 72.511719-14.511719zm0 0" fill="#01a4a3"/><path d="m354.261719 19.539062v62.421876h-25.863281c-22.296876-9.320313-46.757813-14.460938-72.398438-14.460938l-30-33.75 30-33.75c34.808594 0 68 6.949219 98.261719 19.539062zm0 0" fill="#f1e189"/><path d="m256 0v67.5c-25.640625 0-50.101562 5.140625-72.398438 14.460938h-25.863281v-62.421876c30.261719-12.589843 63.453125-19.539062 98.261719-19.539062zm0 0" fill="#f8f0c4"/><path d="m157.738281 19.539062 25.863281 62.421876c-45.78125 19.109374-82.472656 55.789062-101.601562 101.558593h-62.429688v-25.847656c25.949219-62.332031 75.828126-112.203125 138.167969-138.132813zm0 0" fill="#b8de6f"/><path d="m19.570312 157.671875 62.429688 25.847656c-9.339844 22.320313-14.5 46.808594-14.5 72.480469s5.160156 50.160156 14.5 72.480469v25.847656h-62.429688c-12.609374-30.277344-19.570312-63.488281-19.570312-98.328125s6.960938-68.050781 19.570312-98.328125zm0 0" fill="#73b06a"/><path d="m183.601562 430.039062v62.421876h-25.863281c-62.339843-25.929688-112.21875-75.800782-138.167969-138.132813l62.429688-25.847656c19.128906 45.769531 55.820312 82.449219 101.601562 101.558593zm0 0" fill="#277d65"/><path d="m256 444.5v67.5c-34.808594 0-68-6.949219-98.261719-19.539062l25.863281-62.421876c22.296876 9.320313 46.757813 14.460938 72.398438 14.460938zm0 0" fill="#01c5c4"/><path d="m492.460938 157.738281-62.421876 25.863281c-19.117187-45.8125-55.828124-82.523437-101.640624-101.640624l25.863281-62.421876c62.359375 25.941407 112.257812 75.839844 138.199219 138.199219zm0 0" fill="#ff9b54"/></svg>